<?xml version="1.0" encoding="UTF-8" standalone="no"?>
<svg
   xmlns:dc="http://purl.org/dc/elements/1.1/"
   xmlns:cc="http://creativecommons.org/ns#"
   xmlns:rdf="http://www.w3.org/1999/02/22-rdf-syntax-ns#"
   xmlns:svg="http://www.w3.org/2000/svg"
   xmlns="http://www.w3.org/2000/svg"
   xmlns:sodipodi="http://sodipodi.sourceforge.net/DTD/sodipodi-0.dtd"
   xmlns:inkscape="http://www.inkscape.org/namespaces/inkscape"
   version="1.1"
   id="Layer_2"
   x="0px"
   y="0px"
   width="400.667px"
   height="400.666px"
   viewBox="0 0 400.667 400.666"
   enable-background="new 0 0 400.667 400.666"
   xml:space="preserve"
   sodipodi:docname="vertical_mechanics.svg"
   inkscape:version="0.92.3 (2405546, 2018-03-11)"><metadata
   id="metadata2353"><rdf:RDF><cc:Work
       rdf:about=""><dc:format>image/svg+xml</dc:format><dc:type
         rdf:resource="http://purl.org/dc/dcmitype/StillImage" /><dc:title /></cc:Work></rdf:RDF></metadata><defs
   id="defs2351" /><sodipodi:namedview
   pagecolor="#ffffff"
   bordercolor="#666666"
   borderopacity="1"
   objecttolerance="10"
   gridtolerance="10"
   guidetolerance="10"
   inkscape:pageopacity="0"
   inkscape:pageshadow="2"
   inkscape:window-width="1853"
   inkscape:window-height="1145"
   id="namedview2349"
   showgrid="false"
   inkscape:zoom="0.77479"
   inkscape:cx="221.99252"
   inkscape:cy="321.85251"
   inkscape:window-x="67"
   inkscape:window-y="27"
   inkscape:window-maximized="1"
   inkscape:current-layer="Layer_2" />
<filter
   filterUnits="objectBoundingBox"
   id="AI_Shadow_1">
	<feGaussianBlur
   stdDeviation="5"
   result="blur"
   in="SourceAlpha"
   id="feGaussianBlur2189" />
	<feOffset
   dy="0"
   dx="0"
   result="offsetBlurredAlpha"
   in="blur"
   id="feOffset2191" />
	<feMerge
   id="feMerge2197">
		<feMergeNode
   in="offsetBlurredAlpha"
   id="feMergeNode2193" />
		<feMergeNode
   in="SourceGraphic"
   id="feMergeNode2195" />
	</feMerge>
</filter>
<circle
   fill="#232323"
   cx="200.333"
   cy="200"
   r="161"
   id="circle2200" />
<path
   inkscape:connector-curvature="0"
   style="fill:none;stroke:#ff0000;stroke-width:10;stroke-miterlimit:10"
   stroke-miterlimit="10"
   d="M 115.17903,82.483638 C 70.984384,114.20076 54.381001,164.96001 55.347025,198.16028"
   id="path5499"
   sodipodi:nodetypes="cc" /><line
   fill="none"
   stroke="#FFFFFF"
   stroke-width="4"
   stroke-miterlimit="10"
   x1="50.234"
   y1="200"
   x2="73.667"
   y2="200"
   id="line2202" />
<path
   inkscape:connector-curvature="0"
   style="fill:none;stroke:#f9ff00;stroke-width:10;stroke-miterlimit:10;stroke-opacity:1"
   stroke-miterlimit="10"
   d="M 177.52375,56.74403 C 155.4041,60.200815 133.60914,68.812124 115.66689,82.239708"
   id="path5499-8"
   sodipodi:nodetypes="cc" /><line
   fill="none"
   stroke="#FFFFFF"
   stroke-width="4"
   stroke-miterlimit="10"
   x1="94.197"
   y1="93.864"
   x2="110.767"
   y2="110.434"
   id="line2204" />
<path
   inkscape:connector-curvature="0"
   style="fill:none;stroke:#007511;stroke-width:10;stroke-miterlimit:10;stroke-opacity:1"
   stroke-miterlimit="10"
   d="M 302.1856,97.000613 C 267.49363,62.675276 221.39741,49.721587 177.52375,56.74403"
   id="path5499-8-2"
   sodipodi:nodetypes="cc" /><line
   fill="none"
   stroke="#FFFFFF"
   stroke-width="4"
   stroke-miterlimit="10"
   x1="200.333"
   y1="49.902"
   x2="200.333"
   y2="73.334"
   id="line2206" />
<line
   fill="none"
   stroke="#FFFFFF"
   stroke-width="4"
   stroke-miterlimit="10"
   x1="306.468"
   y1="93.865"
   x2="289.9"
   y2="110.434"
   id="line2208" />
<line
   fill="none"
   stroke="#FFFFFF"
   stroke-width="4"
   stroke-miterlimit="10"
   x1="348.583"
   y1="223.481"
   x2="325.44"
   y2="219.814"
   id="line2210" />
<line
   fill="none"
   stroke="#FFFFFF"
   stroke-width="4"
   stroke-miterlimit="10"
   x1="348.583"
   y1="176.521"
   x2="325.44"
   y2="180.185"
   id="line2212" />
<line
   fill="none"
   stroke="#FFFFFF"
   stroke-width="4"
   stroke-miterlimit="10"
   x1="306.467"
   y1="306.137"
   x2="289.9"
   y2="289.566"
   id="line2214" />
<line
   fill="none"
   stroke="#FFFFFF"
   stroke-width="4"
   stroke-miterlimit="10"
   x1="200.332"
   y1="350.1"
   x2="200.333"
   y2="326.666"
   id="line2216" />
<line
   fill="none"
   stroke="#FFFFFF"
   stroke-width="4"
   stroke-miterlimit="10"
   x1="94.196"
   y1="306.137"
   x2="110.767"
   y2="289.566"
   id="line2218" />
<line
   fill="none"
   stroke="#FFFFFF"
   stroke-width="2"
   stroke-miterlimit="10"
   x1="50.697"
   y1="188.224"
   x2="66.627"
   y2="189.477"
   id="line2220" />
<line
   fill="none"
   stroke="#FFFFFF"
   stroke-width="2"
   stroke-miterlimit="10"
   x1="52.082"
   y1="176.52"
   x2="67.865"
   y2="179.019"
   id="line2222" />
<line
   fill="none"
   stroke="#FFFFFF"
   stroke-width="2"
   stroke-miterlimit="10"
   x1="54.381"
   y1="164.96"
   x2="69.919"
   y2="168.689"
   id="line2224" />
<line
   fill="none"
   stroke="#FFFFFF"
   stroke-width="2"
   stroke-miterlimit="10"
   x1="57.581"
   y1="153.616"
   x2="72.777"
   y2="158.554"
   id="line2226" />
<line
   fill="none"
   stroke="#FFFFFF"
   stroke-width="2"
   stroke-miterlimit="10"
   x1="61.66"
   y1="142.559"
   x2="76.422"
   y2="148.674"
   id="line2228" />
<line
   fill="none"
   stroke="#FFFFFF"
   stroke-width="2"
   stroke-miterlimit="10"
   x1="66.594"
   y1="131.855"
   x2="80.831"
   y2="139.11"
   id="line2230" />
<line
   fill="none"
   stroke="#FFFFFF"
   stroke-width="2"
   stroke-miterlimit="10"
   x1="72.353"
   y1="121.572"
   x2="85.977"
   y2="129.922"
   id="line2232" />
<line
   fill="none"
   stroke="#FFFFFF"
   stroke-width="2"
   stroke-miterlimit="10"
   x1="78.9"
   y1="111.772"
   x2="91.827"
   y2="121.165"
   id="line2234" />
<line
   fill="none"
   stroke="#FFFFFF"
   stroke-width="2"
   stroke-miterlimit="10"
   x1="86.197"
   y1="102.517"
   x2="98.347"
   y2="112.895"
   id="line2236" />
<line
   fill="none"
   stroke="#FFFFFF"
   stroke-width="2"
   stroke-miterlimit="10"
   x1="50.697"
   y1="211.777"
   x2="66.627"
   y2="210.523"
   id="line2238" />
<line
   fill="none"
   stroke="#FFFFFF"
   stroke-width="2"
   stroke-miterlimit="10"
   x1="52.083"
   y1="223.481"
   x2="67.866"
   y2="220.98"
   id="line2240" />
<line
   fill="none"
   stroke="#FFFFFF"
   stroke-width="2"
   stroke-miterlimit="10"
   x1="54.382"
   y1="235.041"
   x2="69.92"
   y2="231.309"
   id="line2242" />
<line
   fill="none"
   stroke="#FFFFFF"
   stroke-width="2"
   stroke-miterlimit="10"
   x1="57.582"
   y1="246.384"
   x2="72.779"
   y2="241.444"
   id="line2244" />
<line
   fill="none"
   stroke="#FFFFFF"
   stroke-width="2"
   stroke-miterlimit="10"
   x1="61.661"
   y1="257.441"
   x2="76.423"
   y2="251.324"
   id="line2246" />
<line
   fill="none"
   stroke="#FFFFFF"
   stroke-width="2"
   stroke-miterlimit="10"
   x1="66.595"
   y1="268.144"
   x2="80.833"
   y2="260.887"
   id="line2248" />
<line
   fill="none"
   stroke="#FFFFFF"
   stroke-width="2"
   stroke-miterlimit="10"
   x1="72.354"
   y1="278.427"
   x2="85.978"
   y2="270.075"
   id="line2250" />
<line
   fill="none"
   stroke="#FFFFFF"
   stroke-width="2"
   stroke-miterlimit="10"
   x1="78.902"
   y1="288.226"
   x2="91.829"
   y2="278.831"
   id="line2252" />
<line
   fill="none"
   stroke="#FFFFFF"
   stroke-width="2"
   stroke-miterlimit="10"
   x1="86.199"
   y1="297.481"
   x2="98.348"
   y2="287.101"
   id="line2254" />
<line
   fill="none"
   stroke="#FFFFFF"
   stroke-width="2"
   stroke-miterlimit="10"
   x1="112.11"
   y1="321.432"
   x2="121.5"
   y2="308.502"
   id="line2256" />
<line
   fill="none"
   stroke="#FFFFFF"
   stroke-width="2"
   stroke-miterlimit="10"
   x1="132.192"
   y1="333.738"
   x2="139.444"
   y2="319.499"
   id="line2258" />
<line
   fill="none"
   stroke="#FFFFFF"
   stroke-width="2"
   stroke-miterlimit="10"
   x1="153.952"
   y1="342.751"
   x2="158.887"
   y2="327.553"
   id="line2260" />
<line
   fill="none"
   stroke="#FFFFFF"
   stroke-width="2"
   stroke-miterlimit="10"
   x1="176.853"
   y1="348.25"
   x2="179.351"
   y2="332.466"
   id="line2262" />
<line
   fill="none"
   stroke="#FFFFFF"
   stroke-width="2"
   stroke-miterlimit="10"
   x1="223.814"
   y1="348.25"
   x2="221.312"
   y2="332.467"
   id="line2264" />
<line
   fill="none"
   stroke="#FFFFFF"
   stroke-width="2"
   stroke-miterlimit="10"
   x1="246.716"
   y1="342.751"
   x2="241.776"
   y2="327.555"
   id="line2266" />
<line
   fill="none"
   stroke="#FFFFFF"
   stroke-width="2"
   stroke-miterlimit="10"
   x1="268.476"
   y1="333.738"
   x2="261.219"
   y2="319.501"
   id="line2268" />
<line
   fill="none"
   stroke="#FFFFFF"
   stroke-width="2"
   stroke-miterlimit="10"
   x1="288.558"
   y1="321.432"
   x2="279.164"
   y2="308.506"
   id="line2270" />
<line
   fill="none"
   stroke="#FFFFFF"
   stroke-width="2"
   stroke-miterlimit="10"
   x1="321.764"
   y1="288.227"
   x2="308.834"
   y2="278.836"
   id="line2272" />
<line
   fill="none"
   stroke="#FFFFFF"
   stroke-width="2"
   stroke-miterlimit="10"
   x1="334.071"
   y1="268.145"
   x2="319.832"
   y2="260.892"
   id="line2274" />
<line
   fill="none"
   stroke="#FFFFFF"
   stroke-width="2"
   stroke-miterlimit="10"
   x1="343.084"
   y1="246.385"
   x2="327.886"
   y2="241.449"
   id="line2276" />
<line
   fill="none"
   stroke="#FFFFFF"
   stroke-width="2"
   stroke-miterlimit="10"
   x1="343.085"
   y1="153.621"
   x2="327.888"
   y2="158.561"
   id="line2278" />
<line
   fill="none"
   stroke="#FFFFFF"
   stroke-width="2"
   stroke-miterlimit="10"
   x1="334.072"
   y1="131.861"
   x2="319.834"
   y2="139.117"
   id="line2280" />
<line
   fill="none"
   stroke="#FFFFFF"
   stroke-width="2"
   stroke-miterlimit="10"
   x1="321.765"
   y1="111.778"
   x2="308.838"
   y2="121.173"
   id="line2282" />
<line
   fill="none"
   stroke="#FFFFFF"
   stroke-width="2"
   stroke-miterlimit="10"
   x1="288.559"
   y1="78.572"
   x2="279.168"
   y2="91.502"
   id="line2284" />
<line
   fill="none"
   stroke="#FFFFFF"
   stroke-width="2"
   stroke-miterlimit="10"
   x1="268.477"
   y1="66.266"
   x2="261.225"
   y2="80.505"
   id="line2286" />
<line
   fill="none"
   stroke="#FFFFFF"
   stroke-width="2"
   stroke-miterlimit="10"
   x1="246.717"
   y1="57.253"
   x2="241.782"
   y2="72.451"
   id="line2288" />
<line
   fill="none"
   stroke="#FFFFFF"
   stroke-width="2"
   stroke-miterlimit="10"
   x1="223.815"
   y1="51.754"
   x2="221.318"
   y2="67.538"
   id="line2290" />
<line
   fill="none"
   stroke="#FFFFFF"
   stroke-width="2"
   stroke-miterlimit="10"
   x1="176.855"
   y1="51.754"
   x2="179.357"
   y2="67.537"
   id="line2292" />
<line
   fill="none"
   stroke="#FFFFFF"
   stroke-width="2"
   stroke-miterlimit="10"
   x1="153.953"
   y1="57.252"
   x2="158.893"
   y2="72.449"
   id="line2294" />
<line
   fill="none"
   stroke="#FFFFFF"
   stroke-width="2"
   stroke-miterlimit="10"
   x1="132.193"
   y1="66.266"
   x2="139.45"
   y2="80.502"
   id="line2296" />
<line
   fill="none"
   stroke="#FFFFFF"
   stroke-width="2"
   stroke-miterlimit="10"
   x1="112.111"
   y1="78.572"
   x2="121.505"
   y2="91.498"
   id="line2298" />
<g
   display="none"
   filter="url(#AI_Shadow_1)"
   id="g2304">
	<path
   display="inline"
   fill="#232323"
   d="M200.333,33.5c-91.956,0-166.5,74.544-166.5,166.5s74.544,166.5,166.5,166.5   c91.957,0,166.5-74.544,166.5-166.5S292.29,33.5,200.333,33.5z M200.667,350.099c-82.714,0-149.767-67.053-149.767-149.767   c0-82.713,67.053-149.767,149.767-149.767s149.767,67.053,149.767,149.767C350.433,283.046,283.38,350.099,200.667,350.099z"
   id="path2300" />
	<path
   display="inline"
   fill="none"
   stroke="#353535"
   stroke-width="1.3"
   stroke-miterlimit="10"
   d="M200.333,33.5   c-91.956,0-166.5,74.544-166.5,166.5s74.544,166.5,166.5,166.5c91.957,0,166.5-74.544,166.5-166.5S292.29,33.5,200.333,33.5z    M200.667,350.099c-82.714,0-149.767-67.053-149.767-149.767c0-82.713,67.053-149.767,149.767-149.767   s149.767,67.053,149.767,149.767C350.433,283.046,283.38,350.099,200.667,350.099z"
   id="path2302" />
</g>
<path
   fill="none"
   stroke="#FFFFFF"
   stroke-width="2"
   stroke-miterlimit="10"
   d="M337.011,178.353c0,0,3,8.314,3,21.98  c0,13.167-3,21.315-3,21.315"
   id="path2306" />
<text
   transform="matrix(1 0 0 1 83.1968 208.1665)"
   fill="#FFFFFF"
   stroke="#FFFFFF"
   stroke-miterlimit="10"
   font-family="sans-serif"
   font-size="25"
   id="text2308">0</text>



<path
   fill="none"
   stroke="#FFFFFF"
   stroke-width="2"
   stroke-miterlimit="10"
   d="M121.417,181.292h-36.25  c0,0,0.342-4.491,2.306-11.307c1.694-5.881,3.944-10.068,3.944-10.068"
   id="path2310" />
<polygon
   fill="#FFFFFF"
   stroke="#FFFFFF"
   stroke-miterlimit="10"
   points="92.042,158.554 88.167,160.792 92.813,162.73 "
   id="polygon2312" />
<path
   fill="none"
   stroke="#FFFFFF"
   stroke-width="2"
   stroke-miterlimit="10"
   d="M121.417,218.708h-36.25  c0,0,0.342,4.491,2.306,11.307c1.694,5.881,3.944,10.068,3.944,10.068"
   id="path2314" />
<polygon
   fill="#FFFFFF"
   stroke="#FFFFFF"
   stroke-miterlimit="10"
   points="92.042,241.446 88.167,239.208 92.813,237.27 "
   id="polygon2316" />
<text
   transform="matrix(1 0 0 1 125.0005 184.6665)"
   fill="#FFFFFF"
   stroke="#FFFFFF"
   stroke-width="0.5"
   stroke-miterlimit="10"
   font-family="sans-serif"
   font-size="10"
   id="text2318">UP</text>



<text
   transform="matrix(1 0 0 1 125.0005 222.6665)"
   fill="#FFFFFF"
   stroke="#FFFFFF"
   stroke-width="0.5"
   stroke-miterlimit="10"
   font-family="sans-serif"
   font-size="10"
   id="text2320">DOWN</text>



<text
   transform="matrix(1 0 0 1 193.6592 102.1489)"
   fill="#FFFFFF"
   stroke="#FFFFFF"
   stroke-width="1.5"
   stroke-miterlimit="10"
   font-family="sans-serif"
   font-size="25"
   id="text2322">1</text>



<text
   transform="matrix(1 0 0 1 192.6592 316.4985)"
   fill="#FFFFFF"
   stroke="#FFFFFF"
   stroke-width="1.5"
   stroke-miterlimit="10"
   font-family="sans-serif"
   font-size="25"
   id="text2324">1</text>



<text
   transform="matrix(1 0 0 1 112.1099 131.8608)"
   fill="#FFFFFF"
   stroke="#FFFFFF"
   stroke-miterlimit="10"
   font-family="sans-serif"
   font-size="25"
   id="text2326">.5</text>



<text
   transform="matrix(1 0 0 1 112.1108 283.5313)"
   fill="#FFFFFF"
   stroke="#FFFFFF"
   stroke-miterlimit="10"
   font-family="sans-serif"
   font-size="25"
   id="text2328">.5</text>



<text
   transform="matrix(1 0 0 1 258.8477 135.4829)"
   id="text2334"><tspan
     x="0"
     y="0"
     fill="#FFFFFF"
     stroke="#FFFFFF"
     stroke-miterlimit="10"
     font-family="sans-serif"
     font-size="25"
     letter-spacing="-3"
     id="tspan2330">1</tspan><tspan
     x="10.355"
     y="0"
     fill="#FFFFFF"
     stroke="#FFFFFF"
     stroke-miterlimit="10"
     font-family="sans-serif"
     font-size="25"
     id="tspan2332">.5</tspan></text>



<text
   transform="matrix(1 0 0 1 261.2246 281.8164)"
   id="text2340"><tspan
     x="0"
     y="0"
     fill="#FFFFFF"
     stroke="#FFFFFF"
     stroke-miterlimit="10"
     font-family="sans-serif"
     font-size="25"
     letter-spacing="-3"
     id="tspan2336">1</tspan><tspan
     x="10.355"
     y="0"
     fill="#FFFFFF"
     stroke="#FFFFFF"
     stroke-miterlimit="10"
     font-family="sans-serif"
     font-size="25"
     id="tspan2338">.5</tspan></text>



<text
   transform="matrix(1 0 0 1 304.8989 208.5229)"
   fill="#FFFFFF"
   stroke="#FFFFFF"
   stroke-miterlimit="10"
   font-family="sans-serif"
   font-size="25"
   letter-spacing="-3"
   id="text2342">2</text>



<text
   stroke-miterlimit="10"
   font-size="14"
   id="text2344"
   style="font-style:normal;font-variant:normal;font-weight:normal;font-stretch:normal;font-size:21.33333397px;font-family:sans-serif;-inkscape-font-specification:'sans-serif, Normal';font-variant-ligatures:normal;font-variant-caps:normal;font-variant-numeric:normal;font-feature-settings:normal;text-align:start;writing-mode:lr-tb;text-anchor:start;fill:#ffffff;stroke:#ffffff;stroke-width:0.5;stroke-miterlimit:10"
   x="119.79704"
   y="165.6895"><tspan
     sodipodi:role="line"
     id="tspan2520"
     x="119.79704"
     y="165.6895">VERTICAL RATE</tspan></text>



<text
   transform="matrix(1 0 0 1 146.4497 242.3579)"
   fill="#FFFFFF"
   stroke="#FFFFFF"
   stroke-width="0.5"
   stroke-miterlimit="10"
   font-family="sans-serif"
   font-size="14"
   id="text2346">1000FT PER MIN</text>



</svg>